<svg xmlns="http://www.w3.org/2000/svg" width="970" height="250" viewBox="0 0 970 250" role="img" aria-label="Erdei Réka — Dubai befektetés"><clipPath id="clip"><rect width="970" height="250" rx="0"/></clipPath><g clip-path="url(#clip)"><defs><linearGradient id="g-bg" x1="0" y1="0" x2="1" y2="1"><stop offset="0" stop-color="#05363d"/><stop offset=".56" stop-color="#0a6e7a"/><stop offset="1" stop-color="#0c7e8c"/></linearGradient><linearGradient id="g-gold" x1="0" y1="0" x2="0" y2="1"><stop offset="0" stop-color="#ffcf6b"/><stop offset="1" stop-color="#f6b23e"/></linearGradient><radialGradient id="g-glow" cx=".7" cy=".2" r=".7"><stop offset="0" stop-color="rgba(43,192,204,.5)"/><stop offset="1" stop-color="rgba(43,192,204,0)"/></radialGradient></defs><rect width="970" height="250" fill="url(#g-bg)"/><rect width="970" height="250" fill="url(#g-glow)"/><svg x="0" y="100" width="970" height="150" viewBox="0 0 1000 120" preserveAspectRatio="xMidYMax slice"><g fill="rgba(255,255,255,.12)"><rect x="8" y="72" width="30" height="48"/><rect x="44" y="52" width="20" height="68"/><rect x="70" y="84" width="34" height="36"/><rect x="110" y="60" width="22" height="60"/><rect x="138" y="40" width="26" height="80"/><rect x="170" y="78" width="30" height="42"/><rect x="206" y="58" width="24" height="62"/><rect x="236" y="86" width="40" height="34"/><rect x="282" y="48" width="22" height="72"/><rect x="310" y="70" width="34" height="50"/><rect x="350" y="36" width="20" height="84"/><rect x="376" y="80" width="30" height="40"/><rect x="412" y="56" width="26" height="64"/><rect x="444" y="76" width="22" height="44"/><polygon points="486,120 486,44 492,44 494,20 496,8 498,20 500,44 506,44 506,120"/><rect x="516" y="60" width="24" height="60"/><rect x="546" y="40" width="30" height="80"/><rect x="582" y="82" width="34" height="38"/><rect x="622" y="54" width="22" height="66"/><rect x="650" y="72" width="30" height="48"/><rect x="686" y="46" width="24" height="74"/><rect x="716" y="84" width="38" height="36"/><rect x="760" y="58" width="22" height="62"/><rect x="788" y="74" width="30" height="46"/><rect x="824" y="42" width="26" height="78"/><rect x="856" y="80" width="34" height="40"/><rect x="896" y="60" width="22" height="60"/><rect x="924" y="76" width="30" height="44"/><rect x="960" y="52" width="26" height="68"/></g></svg><g><circle cx="46.08" cy="69" r="10.08" fill="none" stroke="#ffd280" stroke-width="1.54"/><path d="M 51.12 64.7664 L 44.064 68.496 L 40.536 74.04 L 47.592 70.2096 Z" fill="#ffd280"/><text x="61.76" y="73.76" font-family="system-ui,-apple-system,'Segoe UI',Roboto,'Helvetica Neue',Arial,sans-serif" font-size="14" font-weight="700" fill="rgba(255,255,255,.94)">erdeireka.hu</text></g><text x="36" y="99.6" font-family="system-ui,-apple-system,'Segoe UI',Roboto,'Helvetica Neue',Arial,sans-serif" font-size="12" font-weight="800" fill="#ffd280" letter-spacing="1.6"><tspan x="36" dy="0">DUBAI · OKOS BEFEKTETÉS</tspan></text><text x="36" y="137.0" font-family="system-ui,-apple-system,'Segoe UI',Roboto,'Helvetica Neue',Arial,sans-serif" font-size="30" font-weight="800" fill="#ffffff" letter-spacing="-0.4"><tspan x="36" dy="0">Miért ne vegyél ingatlant Dubaiban?</tspan></text><text x="36" y="167.0" font-family="system-ui,-apple-system,'Segoe UI',Roboto,'Helvetica Neue',Arial,sans-serif" font-size="15" font-weight="500" fill="rgba(255,255,255,.84)" ><tspan x="36" dy="0">Mutatok jobbat: kisebb tőke, passzív hozam — a vétel kockázata és gondja</tspan><tspan x="36" dy="19.5">nélkül.</tspan></text><g><rect x="810" y="106" width="124" height="38" rx="19" fill="url(#g-gold)"/><text x="872" y="130.44" font-family="system-ui,-apple-system,'Segoe UI',Roboto,'Helvetica Neue',Arial,sans-serif" font-size="16" font-weight="800" fill="#083a33" text-anchor="middle">Megnézem   →</text></g></g></svg>